<?xml version="1.0" standalone="no"?><!DOCTYPE svg PUBLIC "-//W3C//DTD SVG 1.1//EN" "http://www.w3.org/Graphics/SVG/1.1/DTD/svg11.dtd"><svg t="1605667561936" class="icon" viewBox="0 0 1024 1024" version="1.1" xmlns="http://www.w3.org/2000/svg" p-id="2725" xmlns:xlink="http://www.w3.org/1999/xlink" width="200" height="200"><defs><style type="text/css"></style></defs><path d="M813.143 365.714q10.286 104-74.857 147.429 66.857 16 100 58.857T864 694.286q-4 40.571-18.571 71.428t-36.858 50.857T753.143 850t-69.429 19.714-83.143 8.572V1024h-88V880.571q-45.714 0-69.714-0.571v144h-88V878.286q-10.286 0-30.857 2.857T292.571 884H178.286L196 779.429h63.429q28.571 0 33.142-29.143V520.57h9.143q-3.428-0.571-9.143-0.571V356q-7.428-38.857-50.857-38.857h-63.428v-93.714l121.143 0.571q36.571 0 55.428-0.571v-144h88V220.57q46.857-1.142 69.714-1.142v-140h88v144q45.143 4 80 12.857T745.143 262t47.143 44.571T813.143 372zM690.286 677.143q0-20.572-8.572-36.572t-21.143-26.285-32.857-17.429-37.428-10.571T548 581.143t-39.429-1.714-36.857 0.571-27.143 0.571v193.143q4.572 0 21.143 2.857t27.429 2.858 30.286-0.858 33.428-2.285 32.572-4.857 31.714-8 27.143-12 22.571-17.143 14-22.857 5.429-29.143z m-40.572-272q0-18.857-7.143-33.429t-17.428-24-27.429-16-31.428-9.428-35.143-4.572T498 316.286t-30.857 0.571-22.572 2.857v175.429q2.858 0 19.715 2.857t26.571 0 28.572-1.143 31.428-3.143 29.429-6.285T608 476.857t21.143-15.428 15.428-22 5.143-29.143z" p-id="2726" fill="#ea9518"></path></svg>