<?xml version="1.0" standalone="no"?><!DOCTYPE svg PUBLIC "-//W3C//DTD SVG 1.1//EN" "http://www.w3.org/Graphics/SVG/1.1/DTD/svg11.dtd"><svg t="1605527994784" class="icon" viewBox="0 0 1024 1024" version="1.1" xmlns="http://www.w3.org/2000/svg" p-id="12142" xmlns:xlink="http://www.w3.org/1999/xlink" width="200" height="200"><defs><style type="text/css"></style></defs><path d="M319.561092 674.939491l146.792442 107.929648-106.627852-317.339678-40.16459 209.41003zM643.971075 382.656403L511.474504 221.018708 378.977933 382.656403 511.474504 775.118078 643.971075 382.656403zM702.910194 674.939491l-39.818242-209.433916-107.356379 317.912946 147.174621-108.47903z" fill="#282828" p-id="12143"></path><path d="M511.474504 1000.902076c270.17644 0 489.18871-219.024213 489.18871-489.18871S781.627059 22.524656 511.474504 22.524656C245.227338 22.524656 28.675344 235.27875 22.429111 499.949429v23.527874C28.675344 788.243527 245.227338 1000.902076 511.474504 1000.902076zM333.200093 368.718824L511.474504 150.936692l178.274411 217.782132 62.557873 325.496805L511.474504 872.49004 270.642221 694.215629z" fill="#282828" p-id="12144"></path></svg>