<?xml version="1.0" standalone="no"?><!DOCTYPE svg PUBLIC "-//W3C//DTD SVG 1.1//EN" "http://www.w3.org/Graphics/SVG/1.1/DTD/svg11.dtd"><svg t="1605681040060" class="icon" viewBox="0 0 1024 1024" version="1.1" xmlns="http://www.w3.org/2000/svg" p-id="10599" xmlns:xlink="http://www.w3.org/1999/xlink" width="200" height="200"><defs><style type="text/css"></style></defs><path d="M635.904 591.872h-245.76c-2.048 0-3.072-1.024-4.096-2.048-1.024-2.048-1.024-3.072 0-5.12l122.88-225.28c2.048-3.072 7.168-3.072 9.216 0l122.88 225.28c1.024 2.048 1.024 3.072 0 5.12-1.024 1.024-3.072 2.048-5.12 2.048z m-236.544-10.24h228.352L513.024 372.736 399.36 581.632z" fill="#263238" p-id="10600"></path><path d="M635.904 586.752m-61.44 0a61.44 61.44 0 1 0 122.88 0 61.44 61.44 0 1 0-122.88 0Z" fill="#00E9FF" p-id="10601"></path><path d="M635.904 653.312c-36.864 0-66.56-29.696-66.56-66.56s29.696-66.56 66.56-66.56 66.56 29.696 66.56 66.56-29.696 66.56-66.56 66.56z m0-122.88c-30.72 0-56.32 25.6-56.32 56.32s25.6 56.32 56.32 56.32 56.32-25.6 56.32-56.32-24.576-56.32-56.32-56.32zM635.904 786.432c-19.456 0-35.84-16.384-35.84-35.84s16.384-35.84 35.84-35.84 35.84 16.384 35.84 35.84-15.36 35.84-35.84 35.84z m0-61.44c-14.336 0-25.6 11.264-25.6 25.6s11.264 25.6 25.6 25.6 25.6-11.264 25.6-25.6-11.264-25.6-25.6-25.6zM799.744 622.592c-19.456 0-35.84-16.384-35.84-35.84s16.384-35.84 35.84-35.84 35.84 16.384 35.84 35.84-15.36 35.84-35.84 35.84z m0-61.44c-14.336 0-25.6 11.264-25.6 25.6s11.264 25.6 25.6 25.6 25.6-11.264 25.6-25.6-11.264-25.6-25.6-25.6z" fill="#263238" p-id="10602"></path><path d="M635.904 724.992c-3.072 0-5.12-2.048-5.12-5.12v-71.68c0-3.072 2.048-5.12 5.12-5.12s5.12 2.048 5.12 5.12v71.68c0 3.072-2.048 5.12-5.12 5.12zM769.024 591.872h-71.68c-3.072 0-5.12-2.048-5.12-5.12s2.048-5.12 5.12-5.12h71.68c3.072 0 5.12 2.048 5.12 5.12s-2.048 5.12-5.12 5.12z" fill="#263238" p-id="10603"></path><path d="M390.144 586.752m-61.44 0a61.44 61.44 0 1 0 122.88 0 61.44 61.44 0 1 0-122.88 0Z" fill="#FF00B4" p-id="10604"></path><path d="M390.144 653.312c-36.864 0-66.56-29.696-66.56-66.56s29.696-66.56 66.56-66.56c17.408 0 34.816 7.168 47.104 19.456 12.288 12.288 19.456 29.696 19.456 47.104 0 36.864-29.696 66.56-66.56 66.56z m0-122.88c-30.72 0-56.32 25.6-56.32 56.32s25.6 56.32 56.32 56.32 56.32-25.6 56.32-56.32c0-15.36-6.144-29.696-16.384-39.936s-24.576-16.384-39.936-16.384zM390.144 786.432c-19.456 0-35.84-16.384-35.84-35.84s16.384-35.84 35.84-35.84 35.84 16.384 35.84 35.84-15.36 35.84-35.84 35.84z m0-61.44c-14.336 0-25.6 11.264-25.6 25.6s11.264 25.6 25.6 25.6 25.6-11.264 25.6-25.6-11.264-25.6-25.6-25.6zM226.304 622.592c-19.456 0-35.84-16.384-35.84-35.84s16.384-35.84 35.84-35.84c9.216 0 18.432 4.096 25.6 10.24 7.168 7.168 10.24 15.36 10.24 25.6 0 20.48-15.36 35.84-35.84 35.84z m0-61.44c-14.336 0-25.6 11.264-25.6 25.6s11.264 25.6 25.6 25.6 25.6-11.264 25.6-25.6c0-7.168-3.072-13.312-7.168-18.432s-11.264-7.168-18.432-7.168z" fill="#263238" p-id="10605"></path><path d="M390.144 724.992c-3.072 0-5.12-2.048-5.12-5.12v-71.68c0-3.072 2.048-5.12 5.12-5.12s5.12 2.048 5.12 5.12v71.68c0 3.072-2.048 5.12-5.12 5.12zM328.704 591.872h-71.68c-3.072 0-5.12-2.048-5.12-5.12s2.048-5.12 5.12-5.12h71.68c3.072 0 5.12 2.048 5.12 5.12s-2.048 5.12-5.12 5.12z" fill="#263238" p-id="10606"></path><path d="M513.024 361.472m-61.44 0a61.44 61.44 0 1 0 122.88 0 61.44 61.44 0 1 0-122.88 0Z" fill="#FFD740" p-id="10607"></path><path d="M513.024 428.032c-17.408 0-34.816-7.168-47.104-19.456-25.6-25.6-25.6-68.608 0-94.208 25.6-25.6 68.608-25.6 94.208 0 25.6 25.6 25.6 68.608 0 94.208-12.288 13.312-28.672 19.456-47.104 19.456z m0-122.88c-15.36 0-29.696 6.144-39.936 16.384s-16.384 24.576-16.384 39.936 6.144 29.696 16.384 39.936 24.576 16.384 39.936 16.384 29.696-6.144 39.936-16.384c21.504-21.504 21.504-57.344 0-79.872-10.24-10.24-24.576-16.384-39.936-16.384zM397.312 281.6c-9.216 0-18.432-4.096-25.6-10.24-7.168-7.168-10.24-15.36-10.24-25.6 0-9.216 4.096-18.432 10.24-25.6 14.336-14.336 36.864-14.336 50.176 0 7.168 7.168 10.24 15.36 10.24 25.6s-4.096 18.432-10.24 25.6-14.336 10.24-24.576 10.24z m0-61.44c-6.144 0-13.312 2.048-18.432 7.168-5.12 5.12-7.168 11.264-7.168 18.432s3.072 13.312 7.168 18.432c9.216 9.216 26.624 9.216 35.84 0 5.12-5.12 7.168-11.264 7.168-18.432s-3.072-13.312-7.168-18.432c-4.096-4.096-10.24-7.168-17.408-7.168zM628.736 281.6c-9.216 0-18.432-4.096-25.6-10.24-7.168-7.168-10.24-15.36-10.24-25.6 0-9.216 4.096-18.432 10.24-25.6 14.336-14.336 36.864-14.336 50.176 0 7.168 7.168 10.24 15.36 10.24 25.6s-4.096 18.432-10.24 25.6c-5.12 7.168-14.336 10.24-24.576 10.24z m0-61.44c-6.144 0-13.312 2.048-18.432 7.168-5.12 5.12-7.168 11.264-7.168 18.432s3.072 13.312 7.168 18.432c9.216 9.216 26.624 9.216 35.84 0 5.12-5.12 7.168-11.264 7.168-18.432s-3.072-13.312-7.168-18.432c-4.096-4.096-10.24-7.168-17.408-7.168z" fill="#263238" p-id="10608"></path><path d="M470.016 323.584c-1.024 0-3.072 0-4.096-1.024l-51.2-50.176c-2.048-2.048-2.048-5.12 0-7.168s5.12-2.048 7.168 0l51.2 50.176c2.048 2.048 2.048 5.12 0 7.168-1.024 0-2.048 1.024-3.072 1.024zM557.056 323.584c-1.024 0-3.072 0-4.096-1.024-2.048-2.048-2.048-5.12 0-7.168l51.2-50.176c2.048-2.048 5.12-2.048 7.168 0s2.048 5.12 0 7.168l-51.2 50.176c-1.024 0-2.048 1.024-3.072 1.024zM717.824 447.488c-3.072 0-5.12-2.048-5.12-5.12v-40.96c0-3.072 2.048-5.12 5.12-5.12s5.12 2.048 5.12 5.12v40.96c0 3.072-2.048 5.12-5.12 5.12z" fill="#263238" p-id="10609"></path><path d="M738.304 427.008h-40.96c-3.072 0-5.12-2.048-5.12-5.12s2.048-5.12 5.12-5.12h40.96c3.072 0 5.12 2.048 5.12 5.12s-2.048 5.12-5.12 5.12zM513.024 729.088c-3.072 0-5.12-2.048-5.12-5.12v-40.96c0-3.072 2.048-5.12 5.12-5.12s5.12 2.048 5.12 5.12v40.96c0 3.072-2.048 5.12-5.12 5.12z" fill="#263238" p-id="10610"></path><path d="M533.504 708.608h-40.96c-3.072 0-5.12-2.048-5.12-5.12s2.048-5.12 5.12-5.12h40.96c3.072 0 5.12 2.048 5.12 5.12s-2.048 5.12-5.12 5.12z" fill="#263238" p-id="10611"></path><path d="M308.224 447.488c-3.072 0-5.12-2.048-5.12-5.12v-40.96c0-3.072 2.048-5.12 5.12-5.12s5.12 2.048 5.12 5.12v40.96c0 3.072-2.048 5.12-5.12 5.12z" fill="#263238" p-id="10612"></path><path d="M328.704 427.008h-40.96c-3.072 0-5.12-2.048-5.12-5.12s2.048-5.12 5.12-5.12h40.96c3.072 0 5.12 2.048 5.12 5.12s-2.048 5.12-5.12 5.12z" fill="#263238" p-id="10613"></path></svg>